<mxfile host="app.diagrams.net" modified="2020-12-11T10:27:42.898Z" agent="5.0 (X11; Linux x86_64) AppleWebKit/537.36 (KHTML, like Gecko) Chrome/87.0.4280.66 Safari/537.36" etag="QuYgCu5dc0N__P8jYDmJ" version="14.0.1" type="github">
  <diagram id="C5RBs43oDa-KdzZeNtuy" name="Page-1">
    <mxGraphModel dx="1358" dy="592" grid="1" gridSize="10" guides="1" tooltips="1" connect="1" arrows="1" fold="1" page="1" pageScale="1" pageWidth="827" pageHeight="1169" math="0" shadow="0">
      <root>
        <mxCell id="WIyWlLk6GJQsqaUBKTNV-0" />
        <mxCell id="WIyWlLk6GJQsqaUBKTNV-1" parent="WIyWlLk6GJQsqaUBKTNV-0" />
        <mxCell id="NHXklJYjzgCfUYS_sEGv-73" style="edgeStyle=orthogonalEdgeStyle;rounded=0;orthogonalLoop=1;jettySize=auto;html=1;exitX=0;exitY=0.5;exitDx=0;exitDy=0;entryX=1;entryY=0.597;entryDx=0;entryDy=0;entryPerimeter=0;" edge="1" parent="WIyWlLk6GJQsqaUBKTNV-1" source="WIyWlLk6GJQsqaUBKTNV-7" target="NHXklJYjzgCfUYS_sEGv-28">
          <mxGeometry relative="1" as="geometry" />
        </mxCell>
        <mxCell id="WIyWlLk6GJQsqaUBKTNV-7" value="Register" style="rounded=1;whiteSpace=wrap;html=1;fontSize=12;glass=0;strokeWidth=1;shadow=0;" parent="WIyWlLk6GJQsqaUBKTNV-1" vertex="1">
          <mxGeometry x="730" y="510" width="80" height="40" as="geometry" />
        </mxCell>
        <mxCell id="NHXklJYjzgCfUYS_sEGv-23" style="edgeStyle=orthogonalEdgeStyle;rounded=0;orthogonalLoop=1;jettySize=auto;html=1;exitX=1;exitY=0.5;exitDx=0;exitDy=0;entryX=0;entryY=0.5;entryDx=0;entryDy=0;" edge="1" parent="WIyWlLk6GJQsqaUBKTNV-1" source="WIyWlLk6GJQsqaUBKTNV-10" target="WIyWlLk6GJQsqaUBKTNV-6">
          <mxGeometry relative="1" as="geometry" />
        </mxCell>
        <mxCell id="NHXklJYjzgCfUYS_sEGv-160" style="edgeStyle=orthogonalEdgeStyle;rounded=0;orthogonalLoop=1;jettySize=auto;html=1;exitX=0.5;exitY=1;exitDx=0;exitDy=0;" edge="1" parent="WIyWlLk6GJQsqaUBKTNV-1" source="WIyWlLk6GJQsqaUBKTNV-10" target="NHXklJYjzgCfUYS_sEGv-39">
          <mxGeometry relative="1" as="geometry">
            <Array as="points">
              <mxPoint x="500" y="600" />
              <mxPoint x="79" y="600" />
            </Array>
          </mxGeometry>
        </mxCell>
        <mxCell id="NHXklJYjzgCfUYS_sEGv-161" style="edgeStyle=orthogonalEdgeStyle;rounded=0;orthogonalLoop=1;jettySize=auto;html=1;exitX=0.5;exitY=1;exitDx=0;exitDy=0;entryX=0.5;entryY=0;entryDx=0;entryDy=0;" edge="1" parent="WIyWlLk6GJQsqaUBKTNV-1" source="WIyWlLk6GJQsqaUBKTNV-10" target="NHXklJYjzgCfUYS_sEGv-44">
          <mxGeometry relative="1" as="geometry">
            <Array as="points">
              <mxPoint x="500" y="600" />
              <mxPoint x="199" y="600" />
            </Array>
          </mxGeometry>
        </mxCell>
        <mxCell id="NHXklJYjzgCfUYS_sEGv-163" style="edgeStyle=orthogonalEdgeStyle;rounded=0;orthogonalLoop=1;jettySize=auto;html=1;exitX=0.5;exitY=1;exitDx=0;exitDy=0;entryX=0.5;entryY=0;entryDx=0;entryDy=0;" edge="1" parent="WIyWlLk6GJQsqaUBKTNV-1" source="WIyWlLk6GJQsqaUBKTNV-10" target="NHXklJYjzgCfUYS_sEGv-43">
          <mxGeometry relative="1" as="geometry">
            <Array as="points">
              <mxPoint x="500" y="600" />
              <mxPoint x="320" y="600" />
            </Array>
          </mxGeometry>
        </mxCell>
        <mxCell id="NHXklJYjzgCfUYS_sEGv-164" style="edgeStyle=orthogonalEdgeStyle;rounded=0;orthogonalLoop=1;jettySize=auto;html=1;exitX=0.5;exitY=1;exitDx=0;exitDy=0;entryX=0.5;entryY=0;entryDx=0;entryDy=0;" edge="1" parent="WIyWlLk6GJQsqaUBKTNV-1" source="WIyWlLk6GJQsqaUBKTNV-10" target="NHXklJYjzgCfUYS_sEGv-45">
          <mxGeometry relative="1" as="geometry">
            <Array as="points">
              <mxPoint x="500" y="600" />
              <mxPoint x="439" y="600" />
            </Array>
          </mxGeometry>
        </mxCell>
        <mxCell id="NHXklJYjzgCfUYS_sEGv-165" style="edgeStyle=orthogonalEdgeStyle;rounded=0;orthogonalLoop=1;jettySize=auto;html=1;exitX=0.5;exitY=1;exitDx=0;exitDy=0;entryX=0.5;entryY=0;entryDx=0;entryDy=0;" edge="1" parent="WIyWlLk6GJQsqaUBKTNV-1" source="WIyWlLk6GJQsqaUBKTNV-10" target="NHXklJYjzgCfUYS_sEGv-46">
          <mxGeometry relative="1" as="geometry">
            <Array as="points">
              <mxPoint x="500" y="600" />
              <mxPoint x="560" y="600" />
            </Array>
          </mxGeometry>
        </mxCell>
        <mxCell id="NHXklJYjzgCfUYS_sEGv-166" style="edgeStyle=orthogonalEdgeStyle;rounded=0;orthogonalLoop=1;jettySize=auto;html=1;exitX=0.5;exitY=1;exitDx=0;exitDy=0;entryX=0.5;entryY=0;entryDx=0;entryDy=0;" edge="1" parent="WIyWlLk6GJQsqaUBKTNV-1" source="WIyWlLk6GJQsqaUBKTNV-10" target="NHXklJYjzgCfUYS_sEGv-135">
          <mxGeometry relative="1" as="geometry">
            <Array as="points">
              <mxPoint x="500" y="600" />
              <mxPoint x="679" y="600" />
            </Array>
          </mxGeometry>
        </mxCell>
        <mxCell id="WIyWlLk6GJQsqaUBKTNV-10" value="Already&lt;br&gt;Login?" style="rhombus;whiteSpace=wrap;html=1;shadow=0;fontFamily=Helvetica;fontSize=12;align=center;strokeWidth=1;spacing=6;spacingTop=-4;fillColor=#008a00;strokeColor=#005700;fontColor=#ffffff;" parent="WIyWlLk6GJQsqaUBKTNV-1" vertex="1">
          <mxGeometry x="450" y="400" width="100" height="80" as="geometry" />
        </mxCell>
        <mxCell id="NHXklJYjzgCfUYS_sEGv-29" style="edgeStyle=orthogonalEdgeStyle;rounded=0;orthogonalLoop=1;jettySize=auto;html=1;exitX=0.5;exitY=1;exitDx=0;exitDy=0;entryX=0.5;entryY=0;entryDx=0;entryDy=0;" edge="1" parent="WIyWlLk6GJQsqaUBKTNV-1" source="WIyWlLk6GJQsqaUBKTNV-6" target="NHXklJYjzgCfUYS_sEGv-28">
          <mxGeometry relative="1" as="geometry" />
        </mxCell>
        <mxCell id="NHXklJYjzgCfUYS_sEGv-70" style="edgeStyle=orthogonalEdgeStyle;rounded=0;orthogonalLoop=1;jettySize=auto;html=1;exitX=0.5;exitY=0;exitDx=0;exitDy=0;entryX=0.466;entryY=1.048;entryDx=0;entryDy=0;entryPerimeter=0;" edge="1" parent="WIyWlLk6GJQsqaUBKTNV-1" source="WIyWlLk6GJQsqaUBKTNV-6" target="NHXklJYjzgCfUYS_sEGv-5">
          <mxGeometry relative="1" as="geometry" />
        </mxCell>
        <mxCell id="WIyWlLk6GJQsqaUBKTNV-6" value="Have an&amp;nbsp;&lt;br&gt;Account?" style="rhombus;whiteSpace=wrap;html=1;shadow=0;fontFamily=Helvetica;fontSize=12;align=center;strokeWidth=1;spacing=6;spacingTop=-4;" parent="WIyWlLk6GJQsqaUBKTNV-1" vertex="1">
          <mxGeometry x="580" y="400" width="100" height="80" as="geometry" />
        </mxCell>
        <mxCell id="NHXklJYjzgCfUYS_sEGv-6" style="edgeStyle=orthogonalEdgeStyle;rounded=0;orthogonalLoop=1;jettySize=auto;html=1;exitX=0.5;exitY=1;exitDx=0;exitDy=0;entryX=0.5;entryY=0;entryDx=0;entryDy=0;" edge="1" parent="WIyWlLk6GJQsqaUBKTNV-1" source="NHXklJYjzgCfUYS_sEGv-3" target="NHXklJYjzgCfUYS_sEGv-5">
          <mxGeometry relative="1" as="geometry" />
        </mxCell>
        <mxCell id="NHXklJYjzgCfUYS_sEGv-3" value="START" style="rounded=1;whiteSpace=wrap;html=1;fontSize=12;glass=0;strokeWidth=1;shadow=0;fillColor=#cdeb8b;strokeColor=#36393d;" vertex="1" parent="WIyWlLk6GJQsqaUBKTNV-1">
          <mxGeometry x="580.5" y="90" width="105" height="60" as="geometry" />
        </mxCell>
        <mxCell id="NHXklJYjzgCfUYS_sEGv-177" style="edgeStyle=orthogonalEdgeStyle;rounded=0;orthogonalLoop=1;jettySize=auto;html=1;exitX=0;exitY=0.5;exitDx=0;exitDy=0;entryX=1;entryY=0.5;entryDx=0;entryDy=0;" edge="1" parent="WIyWlLk6GJQsqaUBKTNV-1" source="NHXklJYjzgCfUYS_sEGv-5" target="NHXklJYjzgCfUYS_sEGv-7">
          <mxGeometry relative="1" as="geometry" />
        </mxCell>
        <mxCell id="NHXklJYjzgCfUYS_sEGv-5" value="Home" style="ellipse;whiteSpace=wrap;html=1;aspect=fixed;" vertex="1" parent="WIyWlLk6GJQsqaUBKTNV-1">
          <mxGeometry x="593" y="200" width="80" height="80" as="geometry" />
        </mxCell>
        <mxCell id="NHXklJYjzgCfUYS_sEGv-143" style="edgeStyle=orthogonalEdgeStyle;rounded=0;orthogonalLoop=1;jettySize=auto;html=1;exitX=0;exitY=0.5;exitDx=0;exitDy=0;entryX=1;entryY=0.5;entryDx=0;entryDy=0;" edge="1" parent="WIyWlLk6GJQsqaUBKTNV-1" source="NHXklJYjzgCfUYS_sEGv-7" target="NHXklJYjzgCfUYS_sEGv-10">
          <mxGeometry relative="1" as="geometry" />
        </mxCell>
        <mxCell id="NHXklJYjzgCfUYS_sEGv-207" style="edgeStyle=orthogonalEdgeStyle;rounded=0;orthogonalLoop=1;jettySize=auto;html=1;exitX=0.5;exitY=1;exitDx=0;exitDy=0;entryX=0.5;entryY=0;entryDx=0;entryDy=0;" edge="1" parent="WIyWlLk6GJQsqaUBKTNV-1" source="NHXklJYjzgCfUYS_sEGv-7" target="NHXklJYjzgCfUYS_sEGv-181">
          <mxGeometry relative="1" as="geometry" />
        </mxCell>
        <mxCell id="NHXklJYjzgCfUYS_sEGv-7" value="akademik" style="rounded=1;whiteSpace=wrap;html=1;fontSize=12;glass=0;strokeWidth=1;shadow=0;" vertex="1" parent="WIyWlLk6GJQsqaUBKTNV-1">
          <mxGeometry x="360" y="227.5" width="80" height="25" as="geometry" />
        </mxCell>
        <mxCell id="NHXklJYjzgCfUYS_sEGv-144" style="edgeStyle=orthogonalEdgeStyle;rounded=0;orthogonalLoop=1;jettySize=auto;html=1;exitX=0;exitY=0.5;exitDx=0;exitDy=0;entryX=1;entryY=0.5;entryDx=0;entryDy=0;" edge="1" parent="WIyWlLk6GJQsqaUBKTNV-1" source="NHXklJYjzgCfUYS_sEGv-10" target="NHXklJYjzgCfUYS_sEGv-11">
          <mxGeometry relative="1" as="geometry" />
        </mxCell>
        <mxCell id="NHXklJYjzgCfUYS_sEGv-197" style="edgeStyle=orthogonalEdgeStyle;rounded=0;orthogonalLoop=1;jettySize=auto;html=1;exitX=0.5;exitY=1;exitDx=0;exitDy=0;" edge="1" parent="WIyWlLk6GJQsqaUBKTNV-1" source="NHXklJYjzgCfUYS_sEGv-10" target="NHXklJYjzgCfUYS_sEGv-168">
          <mxGeometry relative="1" as="geometry" />
        </mxCell>
        <mxCell id="NHXklJYjzgCfUYS_sEGv-10" value="Informasi" style="rounded=1;whiteSpace=wrap;html=1;fontSize=12;glass=0;strokeWidth=1;shadow=0;" vertex="1" parent="WIyWlLk6GJQsqaUBKTNV-1">
          <mxGeometry x="239" y="107.5" width="80" height="25" as="geometry" />
        </mxCell>
        <mxCell id="NHXklJYjzgCfUYS_sEGv-178" style="edgeStyle=orthogonalEdgeStyle;rounded=0;orthogonalLoop=1;jettySize=auto;html=1;exitX=0;exitY=0.5;exitDx=0;exitDy=0;entryX=0.5;entryY=0;entryDx=0;entryDy=0;" edge="1" parent="WIyWlLk6GJQsqaUBKTNV-1" source="NHXklJYjzgCfUYS_sEGv-11" target="NHXklJYjzgCfUYS_sEGv-12">
          <mxGeometry relative="1" as="geometry" />
        </mxCell>
        <mxCell id="NHXklJYjzgCfUYS_sEGv-196" style="edgeStyle=orthogonalEdgeStyle;rounded=0;orthogonalLoop=1;jettySize=auto;html=1;exitX=0.5;exitY=1;exitDx=0;exitDy=0;entryX=0.5;entryY=0;entryDx=0;entryDy=0;" edge="1" parent="WIyWlLk6GJQsqaUBKTNV-1" source="NHXklJYjzgCfUYS_sEGv-11" target="NHXklJYjzgCfUYS_sEGv-152">
          <mxGeometry relative="1" as="geometry" />
        </mxCell>
        <mxCell id="NHXklJYjzgCfUYS_sEGv-11" value="Pendaftaran" style="rounded=1;whiteSpace=wrap;html=1;fontSize=12;glass=0;strokeWidth=1;shadow=0;" vertex="1" parent="WIyWlLk6GJQsqaUBKTNV-1">
          <mxGeometry x="119" y="155" width="80" height="25" as="geometry" />
        </mxCell>
        <mxCell id="NHXklJYjzgCfUYS_sEGv-184" style="edgeStyle=orthogonalEdgeStyle;rounded=0;orthogonalLoop=1;jettySize=auto;html=1;exitX=0.5;exitY=1;exitDx=0;exitDy=0;" edge="1" parent="WIyWlLk6GJQsqaUBKTNV-1" source="NHXklJYjzgCfUYS_sEGv-12" target="NHXklJYjzgCfUYS_sEGv-148">
          <mxGeometry relative="1" as="geometry" />
        </mxCell>
        <mxCell id="NHXklJYjzgCfUYS_sEGv-12" value="Galeri&amp;amp;Lokasi" style="rounded=1;whiteSpace=wrap;html=1;fontSize=12;glass=0;strokeWidth=1;shadow=0;" vertex="1" parent="WIyWlLk6GJQsqaUBKTNV-1">
          <mxGeometry x="20" y="207.5" width="80" height="25" as="geometry" />
        </mxCell>
        <mxCell id="NHXklJYjzgCfUYS_sEGv-24" value="No" style="text;html=1;align=center;verticalAlign=middle;resizable=0;points=[];autosize=1;" vertex="1" parent="WIyWlLk6GJQsqaUBKTNV-1">
          <mxGeometry x="600" y="380" width="30" height="20" as="geometry" />
        </mxCell>
        <mxCell id="NHXklJYjzgCfUYS_sEGv-65" style="edgeStyle=orthogonalEdgeStyle;rounded=0;orthogonalLoop=1;jettySize=auto;html=1;exitX=0.5;exitY=1;exitDx=0;exitDy=0;entryX=0.75;entryY=0;entryDx=0;entryDy=0;" edge="1" parent="WIyWlLk6GJQsqaUBKTNV-1" source="NHXklJYjzgCfUYS_sEGv-28" target="NHXklJYjzgCfUYS_sEGv-45">
          <mxGeometry relative="1" as="geometry">
            <Array as="points">
              <mxPoint x="630" y="600" />
              <mxPoint x="459" y="600" />
            </Array>
          </mxGeometry>
        </mxCell>
        <mxCell id="NHXklJYjzgCfUYS_sEGv-68" style="edgeStyle=orthogonalEdgeStyle;rounded=0;orthogonalLoop=1;jettySize=auto;html=1;exitX=0.5;exitY=1;exitDx=0;exitDy=0;entryX=0.5;entryY=1;entryDx=0;entryDy=0;" edge="1" parent="WIyWlLk6GJQsqaUBKTNV-1" source="NHXklJYjzgCfUYS_sEGv-28" target="WIyWlLk6GJQsqaUBKTNV-7">
          <mxGeometry relative="1" as="geometry" />
        </mxCell>
        <mxCell id="NHXklJYjzgCfUYS_sEGv-28" value="Login" style="rounded=1;whiteSpace=wrap;html=1;fontSize=12;glass=0;strokeWidth=1;shadow=0;fillColor=#008a00;strokeColor=#005700;fontColor=#ffffff;" vertex="1" parent="WIyWlLk6GJQsqaUBKTNV-1">
          <mxGeometry x="580" y="500" width="100" height="50" as="geometry" />
        </mxCell>
        <mxCell id="NHXklJYjzgCfUYS_sEGv-30" value="Yes" style="text;html=1;align=center;verticalAlign=middle;resizable=0;points=[];autosize=1;" vertex="1" parent="WIyWlLk6GJQsqaUBKTNV-1">
          <mxGeometry x="626.5" y="470" width="40" height="20" as="geometry" />
        </mxCell>
        <mxCell id="NHXklJYjzgCfUYS_sEGv-79" style="edgeStyle=orthogonalEdgeStyle;rounded=0;orthogonalLoop=1;jettySize=auto;html=1;exitX=0.5;exitY=1;exitDx=0;exitDy=0;entryX=0.5;entryY=0;entryDx=0;entryDy=0;" edge="1" parent="WIyWlLk6GJQsqaUBKTNV-1" source="NHXklJYjzgCfUYS_sEGv-39" target="NHXklJYjzgCfUYS_sEGv-76">
          <mxGeometry relative="1" as="geometry" />
        </mxCell>
        <mxCell id="NHXklJYjzgCfUYS_sEGv-39" value="Akademik" style="rounded=1;whiteSpace=wrap;html=1;fontSize=12;glass=0;strokeWidth=1;shadow=0;" vertex="1" parent="WIyWlLk6GJQsqaUBKTNV-1">
          <mxGeometry x="39" y="619" width="80" height="40" as="geometry" />
        </mxCell>
        <mxCell id="NHXklJYjzgCfUYS_sEGv-95" style="edgeStyle=orthogonalEdgeStyle;rounded=0;orthogonalLoop=1;jettySize=auto;html=1;exitX=0.5;exitY=1;exitDx=0;exitDy=0;entryX=0.5;entryY=0;entryDx=0;entryDy=0;" edge="1" parent="WIyWlLk6GJQsqaUBKTNV-1" source="NHXklJYjzgCfUYS_sEGv-43" target="NHXklJYjzgCfUYS_sEGv-88">
          <mxGeometry relative="1" as="geometry" />
        </mxCell>
        <mxCell id="NHXklJYjzgCfUYS_sEGv-43" value="Informasi" style="rounded=1;whiteSpace=wrap;html=1;fontSize=12;glass=0;strokeWidth=1;shadow=0;" vertex="1" parent="WIyWlLk6GJQsqaUBKTNV-1">
          <mxGeometry x="280" y="619" width="80" height="40" as="geometry" />
        </mxCell>
        <mxCell id="NHXklJYjzgCfUYS_sEGv-86" style="edgeStyle=orthogonalEdgeStyle;rounded=0;orthogonalLoop=1;jettySize=auto;html=1;exitX=0.5;exitY=1;exitDx=0;exitDy=0;entryX=0.5;entryY=0;entryDx=0;entryDy=0;" edge="1" parent="WIyWlLk6GJQsqaUBKTNV-1" source="NHXklJYjzgCfUYS_sEGv-44" target="NHXklJYjzgCfUYS_sEGv-84">
          <mxGeometry relative="1" as="geometry" />
        </mxCell>
        <mxCell id="NHXklJYjzgCfUYS_sEGv-44" value="Home" style="rounded=1;whiteSpace=wrap;html=1;fontSize=12;glass=0;strokeWidth=1;shadow=0;" vertex="1" parent="WIyWlLk6GJQsqaUBKTNV-1">
          <mxGeometry x="159" y="619" width="80" height="40" as="geometry" />
        </mxCell>
        <mxCell id="NHXklJYjzgCfUYS_sEGv-119" style="edgeStyle=orthogonalEdgeStyle;rounded=0;orthogonalLoop=1;jettySize=auto;html=1;exitX=0.5;exitY=1;exitDx=0;exitDy=0;entryX=0.5;entryY=0;entryDx=0;entryDy=0;" edge="1" parent="WIyWlLk6GJQsqaUBKTNV-1" source="NHXklJYjzgCfUYS_sEGv-45" target="NHXklJYjzgCfUYS_sEGv-111">
          <mxGeometry relative="1" as="geometry" />
        </mxCell>
        <mxCell id="NHXklJYjzgCfUYS_sEGv-45" value="Pendaftaran" style="rounded=1;whiteSpace=wrap;html=1;fontSize=12;glass=0;strokeWidth=1;shadow=0;" vertex="1" parent="WIyWlLk6GJQsqaUBKTNV-1">
          <mxGeometry x="399" y="619" width="80" height="40" as="geometry" />
        </mxCell>
        <mxCell id="NHXklJYjzgCfUYS_sEGv-132" style="edgeStyle=orthogonalEdgeStyle;rounded=0;orthogonalLoop=1;jettySize=auto;html=1;exitX=0.5;exitY=1;exitDx=0;exitDy=0;entryX=0.5;entryY=0;entryDx=0;entryDy=0;" edge="1" parent="WIyWlLk6GJQsqaUBKTNV-1" source="NHXklJYjzgCfUYS_sEGv-46" target="NHXklJYjzgCfUYS_sEGv-129">
          <mxGeometry relative="1" as="geometry" />
        </mxCell>
        <mxCell id="NHXklJYjzgCfUYS_sEGv-46" value="Galeri&lt;br&gt;&amp;amp; Lokasi" style="rounded=1;whiteSpace=wrap;html=1;fontSize=12;glass=0;strokeWidth=1;shadow=0;" vertex="1" parent="WIyWlLk6GJQsqaUBKTNV-1">
          <mxGeometry x="520" y="619" width="80" height="40" as="geometry" />
        </mxCell>
        <mxCell id="NHXklJYjzgCfUYS_sEGv-71" value="&lt;span style=&quot;color: rgba(0 , 0 , 0 , 0) ; font-family: monospace ; font-size: 0px&quot;&gt;sd&lt;/span&gt;" style="text;html=1;align=center;verticalAlign=middle;resizable=0;points=[];autosize=1;" vertex="1" parent="WIyWlLk6GJQsqaUBKTNV-1">
          <mxGeometry x="450" y="380" width="20" height="20" as="geometry" />
        </mxCell>
        <mxCell id="NHXklJYjzgCfUYS_sEGv-72" value="No" style="text;html=1;align=center;verticalAlign=middle;resizable=0;points=[];autosize=1;" vertex="1" parent="WIyWlLk6GJQsqaUBKTNV-1">
          <mxGeometry x="545" y="420" width="30" height="20" as="geometry" />
        </mxCell>
        <mxCell id="NHXklJYjzgCfUYS_sEGv-83" style="edgeStyle=orthogonalEdgeStyle;rounded=0;orthogonalLoop=1;jettySize=auto;html=1;exitX=0.5;exitY=1;exitDx=0;exitDy=0;entryX=0.5;entryY=0;entryDx=0;entryDy=0;" edge="1" parent="WIyWlLk6GJQsqaUBKTNV-1" source="NHXklJYjzgCfUYS_sEGv-74" target="NHXklJYjzgCfUYS_sEGv-75">
          <mxGeometry relative="1" as="geometry" />
        </mxCell>
        <mxCell id="NHXklJYjzgCfUYS_sEGv-74" value="Daftar&lt;br&gt;Dewan Guru" style="rounded=1;whiteSpace=wrap;html=1;fontSize=12;glass=0;strokeWidth=1;shadow=0;fillColor=#f8cecc;strokeColor=#b85450;" vertex="1" parent="WIyWlLk6GJQsqaUBKTNV-1">
          <mxGeometry x="39" y="860" width="80" height="40" as="geometry" />
        </mxCell>
        <mxCell id="NHXklJYjzgCfUYS_sEGv-75" value="Daftar&lt;br&gt;Alumni" style="rounded=1;whiteSpace=wrap;html=1;fontSize=12;glass=0;strokeWidth=1;shadow=0;fillColor=#f8cecc;strokeColor=#b85450;" vertex="1" parent="WIyWlLk6GJQsqaUBKTNV-1">
          <mxGeometry x="39" y="920" width="80" height="40" as="geometry" />
        </mxCell>
        <mxCell id="NHXklJYjzgCfUYS_sEGv-80" style="edgeStyle=orthogonalEdgeStyle;rounded=0;orthogonalLoop=1;jettySize=auto;html=1;exitX=0.5;exitY=1;exitDx=0;exitDy=0;entryX=0.5;entryY=0;entryDx=0;entryDy=0;" edge="1" parent="WIyWlLk6GJQsqaUBKTNV-1" source="NHXklJYjzgCfUYS_sEGv-76" target="NHXklJYjzgCfUYS_sEGv-77">
          <mxGeometry relative="1" as="geometry" />
        </mxCell>
        <mxCell id="NHXklJYjzgCfUYS_sEGv-76" value="Profil&amp;nbsp;&lt;br&gt;Madrasah" style="rounded=1;whiteSpace=wrap;html=1;fontSize=12;glass=0;strokeWidth=1;shadow=0;fillColor=#f8cecc;strokeColor=#b85450;" vertex="1" parent="WIyWlLk6GJQsqaUBKTNV-1">
          <mxGeometry x="39" y="680" width="80" height="40" as="geometry" />
        </mxCell>
        <mxCell id="NHXklJYjzgCfUYS_sEGv-81" style="edgeStyle=orthogonalEdgeStyle;rounded=0;orthogonalLoop=1;jettySize=auto;html=1;exitX=0.5;exitY=1;exitDx=0;exitDy=0;entryX=0.5;entryY=0;entryDx=0;entryDy=0;" edge="1" parent="WIyWlLk6GJQsqaUBKTNV-1" source="NHXklJYjzgCfUYS_sEGv-77" target="NHXklJYjzgCfUYS_sEGv-78">
          <mxGeometry relative="1" as="geometry" />
        </mxCell>
        <mxCell id="NHXklJYjzgCfUYS_sEGv-77" value="Kalender&lt;br&gt;Pendidikan" style="rounded=1;whiteSpace=wrap;html=1;fontSize=12;glass=0;strokeWidth=1;shadow=0;fillColor=#f8cecc;strokeColor=#b85450;" vertex="1" parent="WIyWlLk6GJQsqaUBKTNV-1">
          <mxGeometry x="39" y="740" width="80" height="40" as="geometry" />
        </mxCell>
        <mxCell id="NHXklJYjzgCfUYS_sEGv-82" style="edgeStyle=orthogonalEdgeStyle;rounded=0;orthogonalLoop=1;jettySize=auto;html=1;exitX=0.5;exitY=1;exitDx=0;exitDy=0;" edge="1" parent="WIyWlLk6GJQsqaUBKTNV-1" source="NHXklJYjzgCfUYS_sEGv-78" target="NHXklJYjzgCfUYS_sEGv-74">
          <mxGeometry relative="1" as="geometry" />
        </mxCell>
        <mxCell id="NHXklJYjzgCfUYS_sEGv-78" value="Prestasi" style="rounded=1;whiteSpace=wrap;html=1;fontSize=12;glass=0;strokeWidth=1;shadow=0;fillColor=#f8cecc;strokeColor=#b85450;" vertex="1" parent="WIyWlLk6GJQsqaUBKTNV-1">
          <mxGeometry x="39" y="800" width="80" height="40" as="geometry" />
        </mxCell>
        <mxCell id="NHXklJYjzgCfUYS_sEGv-87" style="edgeStyle=orthogonalEdgeStyle;rounded=0;orthogonalLoop=1;jettySize=auto;html=1;exitX=0.5;exitY=1;exitDx=0;exitDy=0;entryX=0.5;entryY=0;entryDx=0;entryDy=0;" edge="1" parent="WIyWlLk6GJQsqaUBKTNV-1" source="NHXklJYjzgCfUYS_sEGv-84" target="NHXklJYjzgCfUYS_sEGv-85">
          <mxGeometry relative="1" as="geometry" />
        </mxCell>
        <mxCell id="NHXklJYjzgCfUYS_sEGv-84" value="Artikel&lt;br&gt;Islam" style="rounded=1;whiteSpace=wrap;html=1;fontSize=12;glass=0;strokeWidth=1;shadow=0;fillColor=#f8cecc;strokeColor=#b85450;" vertex="1" parent="WIyWlLk6GJQsqaUBKTNV-1">
          <mxGeometry x="159" y="680" width="80" height="40" as="geometry" />
        </mxCell>
        <mxCell id="NHXklJYjzgCfUYS_sEGv-85" value="Berita&amp;nbsp;&lt;br&gt;Sekolah" style="rounded=1;whiteSpace=wrap;html=1;fontSize=12;glass=0;strokeWidth=1;shadow=0;fillColor=#f8cecc;strokeColor=#b85450;" vertex="1" parent="WIyWlLk6GJQsqaUBKTNV-1">
          <mxGeometry x="159" y="740" width="80" height="40" as="geometry" />
        </mxCell>
        <mxCell id="NHXklJYjzgCfUYS_sEGv-100" style="edgeStyle=orthogonalEdgeStyle;rounded=0;orthogonalLoop=1;jettySize=auto;html=1;exitX=1;exitY=0.5;exitDx=0;exitDy=0;entryX=1;entryY=0.5;entryDx=0;entryDy=0;" edge="1" parent="WIyWlLk6GJQsqaUBKTNV-1" source="NHXklJYjzgCfUYS_sEGv-88" target="NHXklJYjzgCfUYS_sEGv-89">
          <mxGeometry relative="1" as="geometry" />
        </mxCell>
        <mxCell id="NHXklJYjzgCfUYS_sEGv-88" value="Pengasuhan" style="rounded=1;whiteSpace=wrap;html=1;fontSize=12;glass=0;strokeWidth=1;shadow=0;fillColor=#f8cecc;strokeColor=#b85450;" vertex="1" parent="WIyWlLk6GJQsqaUBKTNV-1">
          <mxGeometry x="280" y="680" width="80" height="40" as="geometry" />
        </mxCell>
        <mxCell id="NHXklJYjzgCfUYS_sEGv-105" style="edgeStyle=orthogonalEdgeStyle;rounded=0;orthogonalLoop=1;jettySize=auto;html=1;exitX=1;exitY=0.5;exitDx=0;exitDy=0;entryX=1;entryY=0.5;entryDx=0;entryDy=0;" edge="1" parent="WIyWlLk6GJQsqaUBKTNV-1" source="NHXklJYjzgCfUYS_sEGv-89" target="NHXklJYjzgCfUYS_sEGv-104">
          <mxGeometry relative="1" as="geometry" />
        </mxCell>
        <mxCell id="NHXklJYjzgCfUYS_sEGv-89" value="Kegiatan siswa" style="rounded=1;whiteSpace=wrap;html=1;fontSize=12;glass=0;strokeWidth=1;shadow=0;fillColor=#f8cecc;strokeColor=#b85450;" vertex="1" parent="WIyWlLk6GJQsqaUBKTNV-1">
          <mxGeometry x="280" y="820" width="80" height="40" as="geometry" />
        </mxCell>
        <mxCell id="NHXklJYjzgCfUYS_sEGv-99" style="edgeStyle=orthogonalEdgeStyle;rounded=0;orthogonalLoop=1;jettySize=auto;html=1;exitX=0.5;exitY=0;exitDx=0;exitDy=0;" edge="1" parent="WIyWlLk6GJQsqaUBKTNV-1" source="NHXklJYjzgCfUYS_sEGv-91" target="NHXklJYjzgCfUYS_sEGv-92">
          <mxGeometry relative="1" as="geometry" />
        </mxCell>
        <mxCell id="NHXklJYjzgCfUYS_sEGv-91" value="Syarat&amp;nbsp;&lt;br&gt;Kenaikan" style="rounded=1;whiteSpace=wrap;html=1;fontSize=12;glass=0;strokeWidth=1;shadow=0;fillColor=#fff2cc;strokeColor=#d6b656;" vertex="1" parent="WIyWlLk6GJQsqaUBKTNV-1">
          <mxGeometry x="285" y="770" width="70" height="30" as="geometry" />
        </mxCell>
        <mxCell id="NHXklJYjzgCfUYS_sEGv-98" style="edgeStyle=orthogonalEdgeStyle;rounded=0;orthogonalLoop=1;jettySize=auto;html=1;exitX=0.5;exitY=0;exitDx=0;exitDy=0;entryX=0.5;entryY=1;entryDx=0;entryDy=0;" edge="1" parent="WIyWlLk6GJQsqaUBKTNV-1" source="NHXklJYjzgCfUYS_sEGv-92" target="NHXklJYjzgCfUYS_sEGv-88">
          <mxGeometry relative="1" as="geometry" />
        </mxCell>
        <mxCell id="NHXklJYjzgCfUYS_sEGv-92" value="Tata Tertib" style="rounded=1;whiteSpace=wrap;html=1;fontSize=12;glass=0;strokeWidth=1;shadow=0;fillColor=#fff2cc;strokeColor=#d6b656;" vertex="1" parent="WIyWlLk6GJQsqaUBKTNV-1">
          <mxGeometry x="285" y="730" width="70" height="30" as="geometry" />
        </mxCell>
        <mxCell id="NHXklJYjzgCfUYS_sEGv-102" style="edgeStyle=orthogonalEdgeStyle;rounded=0;orthogonalLoop=1;jettySize=auto;html=1;exitX=0.5;exitY=0;exitDx=0;exitDy=0;entryX=0.5;entryY=1;entryDx=0;entryDy=0;" edge="1" parent="WIyWlLk6GJQsqaUBKTNV-1" source="NHXklJYjzgCfUYS_sEGv-93" target="NHXklJYjzgCfUYS_sEGv-94">
          <mxGeometry relative="1" as="geometry" />
        </mxCell>
        <mxCell id="NHXklJYjzgCfUYS_sEGv-93" value="Daftar&lt;br&gt;Harian" style="rounded=1;whiteSpace=wrap;html=1;fontSize=12;glass=0;strokeWidth=1;shadow=0;fillColor=#fff2cc;strokeColor=#d6b656;" vertex="1" parent="WIyWlLk6GJQsqaUBKTNV-1">
          <mxGeometry x="285" y="910" width="70" height="30" as="geometry" />
        </mxCell>
        <mxCell id="NHXklJYjzgCfUYS_sEGv-101" style="edgeStyle=orthogonalEdgeStyle;rounded=0;orthogonalLoop=1;jettySize=auto;html=1;exitX=0.5;exitY=0;exitDx=0;exitDy=0;entryX=0.5;entryY=1;entryDx=0;entryDy=0;" edge="1" parent="WIyWlLk6GJQsqaUBKTNV-1" source="NHXklJYjzgCfUYS_sEGv-94" target="NHXklJYjzgCfUYS_sEGv-89">
          <mxGeometry relative="1" as="geometry" />
        </mxCell>
        <mxCell id="NHXklJYjzgCfUYS_sEGv-94" value="Daftar&lt;br&gt;Ekstrakuli" style="rounded=1;whiteSpace=wrap;html=1;fontSize=12;glass=0;strokeWidth=1;shadow=0;fillColor=#fff2cc;strokeColor=#d6b656;" vertex="1" parent="WIyWlLk6GJQsqaUBKTNV-1">
          <mxGeometry x="285" y="870" width="70" height="30" as="geometry" />
        </mxCell>
        <mxCell id="NHXklJYjzgCfUYS_sEGv-108" style="edgeStyle=orthogonalEdgeStyle;rounded=0;orthogonalLoop=1;jettySize=auto;html=1;exitX=1;exitY=0.5;exitDx=0;exitDy=0;entryX=1;entryY=0.5;entryDx=0;entryDy=0;" edge="1" parent="WIyWlLk6GJQsqaUBKTNV-1" source="NHXklJYjzgCfUYS_sEGv-103" target="NHXklJYjzgCfUYS_sEGv-107">
          <mxGeometry relative="1" as="geometry" />
        </mxCell>
        <mxCell id="NHXklJYjzgCfUYS_sEGv-103" value="Program&amp;nbsp;&lt;br&gt;Tahfidz" style="rounded=1;whiteSpace=wrap;html=1;fontSize=12;glass=0;strokeWidth=1;shadow=0;fillColor=#f8cecc;strokeColor=#b85450;" vertex="1" parent="WIyWlLk6GJQsqaUBKTNV-1">
          <mxGeometry x="280" y="1010" width="80" height="40" as="geometry" />
        </mxCell>
        <mxCell id="NHXklJYjzgCfUYS_sEGv-106" style="edgeStyle=orthogonalEdgeStyle;rounded=0;orthogonalLoop=1;jettySize=auto;html=1;exitX=1;exitY=0.5;exitDx=0;exitDy=0;entryX=1;entryY=0.5;entryDx=0;entryDy=0;" edge="1" parent="WIyWlLk6GJQsqaUBKTNV-1" source="NHXklJYjzgCfUYS_sEGv-104" target="NHXklJYjzgCfUYS_sEGv-103">
          <mxGeometry relative="1" as="geometry" />
        </mxCell>
        <mxCell id="NHXklJYjzgCfUYS_sEGv-104" value="Sumbangan&lt;br&gt;Ke Panti" style="rounded=1;whiteSpace=wrap;html=1;fontSize=12;glass=0;strokeWidth=1;shadow=0;fillColor=#f8cecc;strokeColor=#b85450;" vertex="1" parent="WIyWlLk6GJQsqaUBKTNV-1">
          <mxGeometry x="280" y="960" width="80" height="40" as="geometry" />
        </mxCell>
        <mxCell id="NHXklJYjzgCfUYS_sEGv-107" value="Keuangan" style="rounded=1;whiteSpace=wrap;html=1;fontSize=12;glass=0;strokeWidth=1;shadow=0;fillColor=#f8cecc;strokeColor=#b85450;" vertex="1" parent="WIyWlLk6GJQsqaUBKTNV-1">
          <mxGeometry x="280" y="1060" width="80" height="40" as="geometry" />
        </mxCell>
        <mxCell id="NHXklJYjzgCfUYS_sEGv-123" style="edgeStyle=orthogonalEdgeStyle;rounded=0;orthogonalLoop=1;jettySize=auto;html=1;exitX=0.5;exitY=1;exitDx=0;exitDy=0;entryX=0.5;entryY=0;entryDx=0;entryDy=0;" edge="1" parent="WIyWlLk6GJQsqaUBKTNV-1" source="NHXklJYjzgCfUYS_sEGv-109">
          <mxGeometry relative="1" as="geometry">
            <mxPoint x="440" y="920" as="targetPoint" />
          </mxGeometry>
        </mxCell>
        <mxCell id="NHXklJYjzgCfUYS_sEGv-109" value="Test Online" style="rounded=1;whiteSpace=wrap;html=1;fontSize=12;glass=0;strokeWidth=1;shadow=0;fillColor=#f8cecc;strokeColor=#b85450;" vertex="1" parent="WIyWlLk6GJQsqaUBKTNV-1">
          <mxGeometry x="400" y="860" width="80" height="40" as="geometry" />
        </mxCell>
        <mxCell id="NHXklJYjzgCfUYS_sEGv-120" style="edgeStyle=orthogonalEdgeStyle;rounded=0;orthogonalLoop=1;jettySize=auto;html=1;exitX=0.5;exitY=1;exitDx=0;exitDy=0;entryX=0.5;entryY=0;entryDx=0;entryDy=0;" edge="1" parent="WIyWlLk6GJQsqaUBKTNV-1" source="NHXklJYjzgCfUYS_sEGv-111" target="NHXklJYjzgCfUYS_sEGv-112">
          <mxGeometry relative="1" as="geometry" />
        </mxCell>
        <mxCell id="NHXklJYjzgCfUYS_sEGv-111" value="Pendaftaran&lt;br&gt;Siswa new" style="rounded=1;whiteSpace=wrap;html=1;fontSize=12;glass=0;strokeWidth=1;shadow=0;fillColor=#f8cecc;strokeColor=#b85450;" vertex="1" parent="WIyWlLk6GJQsqaUBKTNV-1">
          <mxGeometry x="400" y="680" width="80" height="40" as="geometry" />
        </mxCell>
        <mxCell id="NHXklJYjzgCfUYS_sEGv-121" style="edgeStyle=orthogonalEdgeStyle;rounded=0;orthogonalLoop=1;jettySize=auto;html=1;exitX=0.5;exitY=1;exitDx=0;exitDy=0;entryX=0.5;entryY=0;entryDx=0;entryDy=0;" edge="1" parent="WIyWlLk6GJQsqaUBKTNV-1" source="NHXklJYjzgCfUYS_sEGv-112" target="NHXklJYjzgCfUYS_sEGv-113">
          <mxGeometry relative="1" as="geometry" />
        </mxCell>
        <mxCell id="NHXklJYjzgCfUYS_sEGv-112" value="Biaya&lt;br&gt;Pendidikan" style="rounded=1;whiteSpace=wrap;html=1;fontSize=12;glass=0;strokeWidth=1;shadow=0;fillColor=#f8cecc;strokeColor=#b85450;" vertex="1" parent="WIyWlLk6GJQsqaUBKTNV-1">
          <mxGeometry x="400" y="740" width="80" height="40" as="geometry" />
        </mxCell>
        <mxCell id="NHXklJYjzgCfUYS_sEGv-122" style="edgeStyle=orthogonalEdgeStyle;rounded=0;orthogonalLoop=1;jettySize=auto;html=1;exitX=0.5;exitY=1;exitDx=0;exitDy=0;entryX=0.5;entryY=0;entryDx=0;entryDy=0;" edge="1" parent="WIyWlLk6GJQsqaUBKTNV-1" source="NHXklJYjzgCfUYS_sEGv-113" target="NHXklJYjzgCfUYS_sEGv-109">
          <mxGeometry relative="1" as="geometry" />
        </mxCell>
        <mxCell id="NHXklJYjzgCfUYS_sEGv-113" value="Petunjuk&lt;br&gt;Teknis&lt;br&gt;PSB" style="rounded=1;whiteSpace=wrap;html=1;fontSize=12;glass=0;strokeWidth=1;shadow=0;fillColor=#f8cecc;strokeColor=#b85450;" vertex="1" parent="WIyWlLk6GJQsqaUBKTNV-1">
          <mxGeometry x="400" y="800" width="80" height="40" as="geometry" />
        </mxCell>
        <mxCell id="NHXklJYjzgCfUYS_sEGv-114" value="Download" style="rounded=1;whiteSpace=wrap;html=1;fontSize=12;glass=0;strokeWidth=1;shadow=0;fillColor=#f8cecc;strokeColor=#b85450;" vertex="1" parent="WIyWlLk6GJQsqaUBKTNV-1">
          <mxGeometry x="399" y="920" width="80" height="40" as="geometry" />
        </mxCell>
        <mxCell id="NHXklJYjzgCfUYS_sEGv-117" style="edgeStyle=orthogonalEdgeStyle;rounded=0;orthogonalLoop=1;jettySize=auto;html=1;exitX=0.5;exitY=0;exitDx=0;exitDy=0;entryX=0.5;entryY=1;entryDx=0;entryDy=0;" edge="1" parent="WIyWlLk6GJQsqaUBKTNV-1" source="NHXklJYjzgCfUYS_sEGv-115" target="NHXklJYjzgCfUYS_sEGv-116">
          <mxGeometry relative="1" as="geometry" />
        </mxCell>
        <mxCell id="NHXklJYjzgCfUYS_sEGv-115" value="Form&amp;nbsp;&lt;br&gt;Kesehatan" style="rounded=1;whiteSpace=wrap;html=1;fontSize=12;glass=0;strokeWidth=1;shadow=0;fillColor=#fff2cc;strokeColor=#d6b656;" vertex="1" parent="WIyWlLk6GJQsqaUBKTNV-1">
          <mxGeometry x="404" y="1010" width="70" height="30" as="geometry" />
        </mxCell>
        <mxCell id="NHXklJYjzgCfUYS_sEGv-118" style="edgeStyle=orthogonalEdgeStyle;rounded=0;orthogonalLoop=1;jettySize=auto;html=1;exitX=0.5;exitY=0;exitDx=0;exitDy=0;entryX=0.5;entryY=1;entryDx=0;entryDy=0;" edge="1" parent="WIyWlLk6GJQsqaUBKTNV-1" source="NHXklJYjzgCfUYS_sEGv-116" target="NHXklJYjzgCfUYS_sEGv-114">
          <mxGeometry relative="1" as="geometry" />
        </mxCell>
        <mxCell id="NHXklJYjzgCfUYS_sEGv-116" value="Form Raport" style="rounded=1;whiteSpace=wrap;html=1;fontSize=12;glass=0;strokeWidth=1;shadow=0;fillColor=#fff2cc;strokeColor=#d6b656;" vertex="1" parent="WIyWlLk6GJQsqaUBKTNV-1">
          <mxGeometry x="404" y="970" width="70" height="30" as="geometry" />
        </mxCell>
        <mxCell id="NHXklJYjzgCfUYS_sEGv-133" style="edgeStyle=orthogonalEdgeStyle;rounded=0;orthogonalLoop=1;jettySize=auto;html=1;exitX=0.5;exitY=1;exitDx=0;exitDy=0;entryX=0.5;entryY=0;entryDx=0;entryDy=0;" edge="1" parent="WIyWlLk6GJQsqaUBKTNV-1" source="NHXklJYjzgCfUYS_sEGv-129" target="NHXklJYjzgCfUYS_sEGv-130">
          <mxGeometry relative="1" as="geometry" />
        </mxCell>
        <mxCell id="NHXklJYjzgCfUYS_sEGv-129" value="Galeri" style="rounded=1;whiteSpace=wrap;html=1;fontSize=12;glass=0;strokeWidth=1;shadow=0;fillColor=#f8cecc;strokeColor=#b85450;" vertex="1" parent="WIyWlLk6GJQsqaUBKTNV-1">
          <mxGeometry x="520" y="680" width="80" height="40" as="geometry" />
        </mxCell>
        <mxCell id="NHXklJYjzgCfUYS_sEGv-134" style="edgeStyle=orthogonalEdgeStyle;rounded=0;orthogonalLoop=1;jettySize=auto;html=1;exitX=0.5;exitY=1;exitDx=0;exitDy=0;entryX=0.5;entryY=0;entryDx=0;entryDy=0;" edge="1" parent="WIyWlLk6GJQsqaUBKTNV-1" source="NHXklJYjzgCfUYS_sEGv-130" target="NHXklJYjzgCfUYS_sEGv-131">
          <mxGeometry relative="1" as="geometry" />
        </mxCell>
        <mxCell id="NHXklJYjzgCfUYS_sEGv-130" value="Lokasi" style="rounded=1;whiteSpace=wrap;html=1;fontSize=12;glass=0;strokeWidth=1;shadow=0;fillColor=#f8cecc;strokeColor=#b85450;" vertex="1" parent="WIyWlLk6GJQsqaUBKTNV-1">
          <mxGeometry x="520" y="740" width="80" height="40" as="geometry" />
        </mxCell>
        <mxCell id="NHXklJYjzgCfUYS_sEGv-131" value="Contact" style="rounded=1;whiteSpace=wrap;html=1;fontSize=12;glass=0;strokeWidth=1;shadow=0;fillColor=#f8cecc;strokeColor=#b85450;" vertex="1" parent="WIyWlLk6GJQsqaUBKTNV-1">
          <mxGeometry x="520" y="800" width="80" height="40" as="geometry" />
        </mxCell>
        <mxCell id="NHXklJYjzgCfUYS_sEGv-139" style="edgeStyle=orthogonalEdgeStyle;rounded=0;orthogonalLoop=1;jettySize=auto;html=1;exitX=0.5;exitY=1;exitDx=0;exitDy=0;entryX=0.5;entryY=0;entryDx=0;entryDy=0;" edge="1" parent="WIyWlLk6GJQsqaUBKTNV-1" source="NHXklJYjzgCfUYS_sEGv-135" target="NHXklJYjzgCfUYS_sEGv-137">
          <mxGeometry relative="1" as="geometry" />
        </mxCell>
        <mxCell id="NHXklJYjzgCfUYS_sEGv-135" value="Profil" style="rounded=1;whiteSpace=wrap;html=1;fontSize=12;glass=0;strokeWidth=1;shadow=0;" vertex="1" parent="WIyWlLk6GJQsqaUBKTNV-1">
          <mxGeometry x="639" y="619" width="80" height="40" as="geometry" />
        </mxCell>
        <mxCell id="NHXklJYjzgCfUYS_sEGv-140" style="edgeStyle=orthogonalEdgeStyle;rounded=0;orthogonalLoop=1;jettySize=auto;html=1;exitX=0.5;exitY=1;exitDx=0;exitDy=0;entryX=0.5;entryY=0;entryDx=0;entryDy=0;" edge="1" parent="WIyWlLk6GJQsqaUBKTNV-1" source="NHXklJYjzgCfUYS_sEGv-137" target="NHXklJYjzgCfUYS_sEGv-138">
          <mxGeometry relative="1" as="geometry" />
        </mxCell>
        <mxCell id="NHXklJYjzgCfUYS_sEGv-137" value="Settings" style="rounded=1;whiteSpace=wrap;html=1;fontSize=12;glass=0;strokeWidth=1;shadow=0;fillColor=#f8cecc;strokeColor=#b85450;" vertex="1" parent="WIyWlLk6GJQsqaUBKTNV-1">
          <mxGeometry x="639" y="680" width="80" height="40" as="geometry" />
        </mxCell>
        <mxCell id="NHXklJYjzgCfUYS_sEGv-213" style="edgeStyle=orthogonalEdgeStyle;rounded=0;orthogonalLoop=1;jettySize=auto;html=1;exitX=0.5;exitY=1;exitDx=0;exitDy=0;entryX=0.5;entryY=0;entryDx=0;entryDy=0;" edge="1" parent="WIyWlLk6GJQsqaUBKTNV-1" source="NHXklJYjzgCfUYS_sEGv-138" target="NHXklJYjzgCfUYS_sEGv-212">
          <mxGeometry relative="1" as="geometry" />
        </mxCell>
        <mxCell id="NHXklJYjzgCfUYS_sEGv-138" value="Logout" style="rounded=1;whiteSpace=wrap;html=1;fontSize=12;glass=0;strokeWidth=1;shadow=0;fillColor=#f8cecc;strokeColor=#b85450;" vertex="1" parent="WIyWlLk6GJQsqaUBKTNV-1">
          <mxGeometry x="639" y="740" width="80" height="40" as="geometry" />
        </mxCell>
        <mxCell id="NHXklJYjzgCfUYS_sEGv-189" style="edgeStyle=orthogonalEdgeStyle;rounded=0;orthogonalLoop=1;jettySize=auto;html=1;exitX=0.5;exitY=1;exitDx=0;exitDy=0;entryX=0.5;entryY=0;entryDx=0;entryDy=0;" edge="1" parent="WIyWlLk6GJQsqaUBKTNV-1" source="NHXklJYjzgCfUYS_sEGv-146" target="NHXklJYjzgCfUYS_sEGv-147">
          <mxGeometry relative="1" as="geometry" />
        </mxCell>
        <mxCell id="NHXklJYjzgCfUYS_sEGv-146" value="Daftar&lt;br&gt;Dewan Guru" style="rounded=1;whiteSpace=wrap;html=1;fontSize=12;glass=0;strokeWidth=1;shadow=0;fillColor=#dae8fc;strokeColor=#6c8ebf;" vertex="1" parent="WIyWlLk6GJQsqaUBKTNV-1">
          <mxGeometry x="20" y="413" width="80" height="40" as="geometry" />
        </mxCell>
        <mxCell id="NHXklJYjzgCfUYS_sEGv-147" value="Daftar&lt;br&gt;Alumni" style="rounded=1;whiteSpace=wrap;html=1;fontSize=12;glass=0;strokeWidth=1;shadow=0;fillColor=#dae8fc;strokeColor=#6c8ebf;" vertex="1" parent="WIyWlLk6GJQsqaUBKTNV-1">
          <mxGeometry x="20" y="470" width="80" height="40" as="geometry" />
        </mxCell>
        <mxCell id="NHXklJYjzgCfUYS_sEGv-185" style="edgeStyle=orthogonalEdgeStyle;rounded=0;orthogonalLoop=1;jettySize=auto;html=1;exitX=0.5;exitY=1;exitDx=0;exitDy=0;entryX=0.5;entryY=0;entryDx=0;entryDy=0;" edge="1" parent="WIyWlLk6GJQsqaUBKTNV-1" source="NHXklJYjzgCfUYS_sEGv-148" target="NHXklJYjzgCfUYS_sEGv-149">
          <mxGeometry relative="1" as="geometry" />
        </mxCell>
        <mxCell id="NHXklJYjzgCfUYS_sEGv-148" value="Profil&amp;nbsp;&lt;br&gt;Madrasah" style="rounded=1;whiteSpace=wrap;html=1;fontSize=12;glass=0;strokeWidth=1;shadow=0;fillColor=#dae8fc;strokeColor=#6c8ebf;" vertex="1" parent="WIyWlLk6GJQsqaUBKTNV-1">
          <mxGeometry x="20" y="260" width="80" height="40" as="geometry" />
        </mxCell>
        <mxCell id="NHXklJYjzgCfUYS_sEGv-187" style="edgeStyle=orthogonalEdgeStyle;rounded=0;orthogonalLoop=1;jettySize=auto;html=1;exitX=0.5;exitY=1;exitDx=0;exitDy=0;entryX=0.5;entryY=0;entryDx=0;entryDy=0;" edge="1" parent="WIyWlLk6GJQsqaUBKTNV-1" source="NHXklJYjzgCfUYS_sEGv-149" target="NHXklJYjzgCfUYS_sEGv-150">
          <mxGeometry relative="1" as="geometry" />
        </mxCell>
        <mxCell id="NHXklJYjzgCfUYS_sEGv-149" value="Kalender&lt;br&gt;Pendidikan" style="rounded=1;whiteSpace=wrap;html=1;fontSize=12;glass=0;strokeWidth=1;shadow=0;fillColor=#dae8fc;strokeColor=#6c8ebf;" vertex="1" parent="WIyWlLk6GJQsqaUBKTNV-1">
          <mxGeometry x="20" y="310" width="80" height="40" as="geometry" />
        </mxCell>
        <mxCell id="NHXklJYjzgCfUYS_sEGv-188" style="edgeStyle=orthogonalEdgeStyle;rounded=0;orthogonalLoop=1;jettySize=auto;html=1;exitX=0.5;exitY=1;exitDx=0;exitDy=0;entryX=0.5;entryY=0;entryDx=0;entryDy=0;" edge="1" parent="WIyWlLk6GJQsqaUBKTNV-1" source="NHXklJYjzgCfUYS_sEGv-150" target="NHXklJYjzgCfUYS_sEGv-146">
          <mxGeometry relative="1" as="geometry" />
        </mxCell>
        <mxCell id="NHXklJYjzgCfUYS_sEGv-150" value="Prestasi" style="rounded=1;whiteSpace=wrap;html=1;fontSize=12;glass=0;strokeWidth=1;shadow=0;fillColor=#dae8fc;strokeColor=#6c8ebf;" vertex="1" parent="WIyWlLk6GJQsqaUBKTNV-1">
          <mxGeometry x="20" y="360" width="80" height="40" as="geometry" />
        </mxCell>
        <mxCell id="NHXklJYjzgCfUYS_sEGv-192" style="edgeStyle=orthogonalEdgeStyle;rounded=0;orthogonalLoop=1;jettySize=auto;html=1;exitX=0.5;exitY=1;exitDx=0;exitDy=0;entryX=0.5;entryY=0;entryDx=0;entryDy=0;" edge="1" parent="WIyWlLk6GJQsqaUBKTNV-1" source="NHXklJYjzgCfUYS_sEGv-151" target="NHXklJYjzgCfUYS_sEGv-155">
          <mxGeometry relative="1" as="geometry" />
        </mxCell>
        <mxCell id="NHXklJYjzgCfUYS_sEGv-151" value="Test Online" style="rounded=1;whiteSpace=wrap;html=1;fontSize=12;glass=0;strokeWidth=1;shadow=0;fillColor=#dae8fc;strokeColor=#6c8ebf;" vertex="1" parent="WIyWlLk6GJQsqaUBKTNV-1">
          <mxGeometry x="119" y="353" width="80" height="40" as="geometry" />
        </mxCell>
        <mxCell id="NHXklJYjzgCfUYS_sEGv-195" style="edgeStyle=orthogonalEdgeStyle;rounded=0;orthogonalLoop=1;jettySize=auto;html=1;exitX=0.5;exitY=1;exitDx=0;exitDy=0;" edge="1" parent="WIyWlLk6GJQsqaUBKTNV-1" source="NHXklJYjzgCfUYS_sEGv-152" target="NHXklJYjzgCfUYS_sEGv-153">
          <mxGeometry relative="1" as="geometry" />
        </mxCell>
        <mxCell id="NHXklJYjzgCfUYS_sEGv-152" value="Pendaftaran&lt;br&gt;Siswa new" style="rounded=1;whiteSpace=wrap;html=1;fontSize=12;glass=0;strokeWidth=1;shadow=0;fillColor=#dae8fc;strokeColor=#6c8ebf;" vertex="1" parent="WIyWlLk6GJQsqaUBKTNV-1">
          <mxGeometry x="119" y="200" width="80" height="40" as="geometry" />
        </mxCell>
        <mxCell id="NHXklJYjzgCfUYS_sEGv-194" style="edgeStyle=orthogonalEdgeStyle;rounded=0;orthogonalLoop=1;jettySize=auto;html=1;exitX=0.5;exitY=1;exitDx=0;exitDy=0;entryX=0.5;entryY=0;entryDx=0;entryDy=0;" edge="1" parent="WIyWlLk6GJQsqaUBKTNV-1" source="NHXklJYjzgCfUYS_sEGv-153" target="NHXklJYjzgCfUYS_sEGv-154">
          <mxGeometry relative="1" as="geometry" />
        </mxCell>
        <mxCell id="NHXklJYjzgCfUYS_sEGv-153" value="Biaya&lt;br&gt;Pendidikan" style="rounded=1;whiteSpace=wrap;html=1;fontSize=12;glass=0;strokeWidth=1;shadow=0;fillColor=#dae8fc;strokeColor=#6c8ebf;" vertex="1" parent="WIyWlLk6GJQsqaUBKTNV-1">
          <mxGeometry x="119" y="250" width="80" height="40" as="geometry" />
        </mxCell>
        <mxCell id="NHXklJYjzgCfUYS_sEGv-193" style="edgeStyle=orthogonalEdgeStyle;rounded=0;orthogonalLoop=1;jettySize=auto;html=1;exitX=0.5;exitY=1;exitDx=0;exitDy=0;" edge="1" parent="WIyWlLk6GJQsqaUBKTNV-1" source="NHXklJYjzgCfUYS_sEGv-154">
          <mxGeometry relative="1" as="geometry">
            <mxPoint x="158.09523809523807" y="350" as="targetPoint" />
          </mxGeometry>
        </mxCell>
        <mxCell id="NHXklJYjzgCfUYS_sEGv-154" value="Petunjuk&lt;br&gt;Teknis&lt;br&gt;PSB" style="rounded=1;whiteSpace=wrap;html=1;fontSize=12;glass=0;strokeWidth=1;shadow=0;fillColor=#dae8fc;strokeColor=#6c8ebf;" vertex="1" parent="WIyWlLk6GJQsqaUBKTNV-1">
          <mxGeometry x="118" y="300" width="80" height="40" as="geometry" />
        </mxCell>
        <mxCell id="NHXklJYjzgCfUYS_sEGv-155" value="Download" style="rounded=1;whiteSpace=wrap;html=1;fontSize=12;glass=0;strokeWidth=1;shadow=0;fillColor=#dae8fc;strokeColor=#6c8ebf;" vertex="1" parent="WIyWlLk6GJQsqaUBKTNV-1">
          <mxGeometry x="119" y="400" width="80" height="40" as="geometry" />
        </mxCell>
        <mxCell id="NHXklJYjzgCfUYS_sEGv-191" style="edgeStyle=orthogonalEdgeStyle;rounded=0;orthogonalLoop=1;jettySize=auto;html=1;exitX=0.5;exitY=0;exitDx=0;exitDy=0;entryX=0.5;entryY=1;entryDx=0;entryDy=0;" edge="1" parent="WIyWlLk6GJQsqaUBKTNV-1" source="NHXklJYjzgCfUYS_sEGv-156" target="NHXklJYjzgCfUYS_sEGv-157">
          <mxGeometry relative="1" as="geometry" />
        </mxCell>
        <mxCell id="NHXklJYjzgCfUYS_sEGv-156" value="Form&amp;nbsp;&lt;br&gt;Kesehatan" style="rounded=1;whiteSpace=wrap;html=1;fontSize=12;glass=0;strokeWidth=1;shadow=0;fillColor=#f5f5f5;strokeColor=#666666;fontColor=#333333;" vertex="1" parent="WIyWlLk6GJQsqaUBKTNV-1">
          <mxGeometry x="124" y="490" width="70" height="30" as="geometry" />
        </mxCell>
        <mxCell id="NHXklJYjzgCfUYS_sEGv-190" style="edgeStyle=orthogonalEdgeStyle;rounded=0;orthogonalLoop=1;jettySize=auto;html=1;exitX=0.5;exitY=0;exitDx=0;exitDy=0;entryX=0.5;entryY=1;entryDx=0;entryDy=0;" edge="1" parent="WIyWlLk6GJQsqaUBKTNV-1" source="NHXklJYjzgCfUYS_sEGv-157" target="NHXklJYjzgCfUYS_sEGv-155">
          <mxGeometry relative="1" as="geometry" />
        </mxCell>
        <mxCell id="NHXklJYjzgCfUYS_sEGv-157" value="Form Raport" style="rounded=1;whiteSpace=wrap;html=1;fontSize=12;glass=0;strokeWidth=1;shadow=0;fillColor=#f5f5f5;strokeColor=#666666;fontColor=#333333;" vertex="1" parent="WIyWlLk6GJQsqaUBKTNV-1">
          <mxGeometry x="124" y="450" width="70" height="30" as="geometry" />
        </mxCell>
        <mxCell id="NHXklJYjzgCfUYS_sEGv-167" value="Yes" style="text;html=1;align=center;verticalAlign=middle;resizable=0;points=[];autosize=1;" vertex="1" parent="WIyWlLk6GJQsqaUBKTNV-1">
          <mxGeometry x="500" y="470" width="40" height="20" as="geometry" />
        </mxCell>
        <mxCell id="NHXklJYjzgCfUYS_sEGv-200" style="edgeStyle=orthogonalEdgeStyle;rounded=0;orthogonalLoop=1;jettySize=auto;html=1;exitX=0;exitY=0.5;exitDx=0;exitDy=0;entryX=0;entryY=0.5;entryDx=0;entryDy=0;" edge="1" parent="WIyWlLk6GJQsqaUBKTNV-1" source="NHXklJYjzgCfUYS_sEGv-168" target="NHXklJYjzgCfUYS_sEGv-169">
          <mxGeometry relative="1" as="geometry" />
        </mxCell>
        <mxCell id="NHXklJYjzgCfUYS_sEGv-168" value="Pengasuhan" style="rounded=1;whiteSpace=wrap;html=1;fontSize=12;glass=0;strokeWidth=1;shadow=0;fillColor=#dae8fc;strokeColor=#6c8ebf;" vertex="1" parent="WIyWlLk6GJQsqaUBKTNV-1">
          <mxGeometry x="239" y="155" width="80" height="40" as="geometry" />
        </mxCell>
        <mxCell id="NHXklJYjzgCfUYS_sEGv-205" style="edgeStyle=orthogonalEdgeStyle;rounded=0;orthogonalLoop=1;jettySize=auto;html=1;exitX=0;exitY=0.5;exitDx=0;exitDy=0;entryX=0;entryY=0.5;entryDx=0;entryDy=0;" edge="1" parent="WIyWlLk6GJQsqaUBKTNV-1" source="NHXklJYjzgCfUYS_sEGv-169" target="NHXklJYjzgCfUYS_sEGv-175">
          <mxGeometry relative="1" as="geometry" />
        </mxCell>
        <mxCell id="NHXklJYjzgCfUYS_sEGv-169" value="Kegiatan siswa" style="rounded=1;whiteSpace=wrap;html=1;fontSize=12;glass=0;strokeWidth=1;shadow=0;fillColor=#dae8fc;strokeColor=#6c8ebf;" vertex="1" parent="WIyWlLk6GJQsqaUBKTNV-1">
          <mxGeometry x="239" y="285" width="80" height="40" as="geometry" />
        </mxCell>
        <mxCell id="NHXklJYjzgCfUYS_sEGv-199" style="edgeStyle=orthogonalEdgeStyle;rounded=0;orthogonalLoop=1;jettySize=auto;html=1;exitX=0.5;exitY=0;exitDx=0;exitDy=0;entryX=0.5;entryY=1;entryDx=0;entryDy=0;" edge="1" parent="WIyWlLk6GJQsqaUBKTNV-1" source="NHXklJYjzgCfUYS_sEGv-170" target="NHXklJYjzgCfUYS_sEGv-171">
          <mxGeometry relative="1" as="geometry" />
        </mxCell>
        <mxCell id="NHXklJYjzgCfUYS_sEGv-170" value="Syarat&amp;nbsp;&lt;br&gt;Kenaikan" style="rounded=1;whiteSpace=wrap;html=1;fontSize=12;glass=0;strokeWidth=1;shadow=0;fillColor=#f5f5f5;strokeColor=#666666;fontColor=#333333;" vertex="1" parent="WIyWlLk6GJQsqaUBKTNV-1">
          <mxGeometry x="244" y="245" width="70" height="30" as="geometry" />
        </mxCell>
        <mxCell id="NHXklJYjzgCfUYS_sEGv-198" style="edgeStyle=orthogonalEdgeStyle;rounded=0;orthogonalLoop=1;jettySize=auto;html=1;exitX=0.5;exitY=0;exitDx=0;exitDy=0;entryX=0.5;entryY=1;entryDx=0;entryDy=0;" edge="1" parent="WIyWlLk6GJQsqaUBKTNV-1" source="NHXklJYjzgCfUYS_sEGv-171" target="NHXklJYjzgCfUYS_sEGv-168">
          <mxGeometry relative="1" as="geometry" />
        </mxCell>
        <mxCell id="NHXklJYjzgCfUYS_sEGv-171" value="Tata Tertib" style="rounded=1;whiteSpace=wrap;html=1;fontSize=12;glass=0;strokeWidth=1;shadow=0;fillColor=#f5f5f5;strokeColor=#666666;fontColor=#333333;" vertex="1" parent="WIyWlLk6GJQsqaUBKTNV-1">
          <mxGeometry x="244" y="205" width="70" height="30" as="geometry" />
        </mxCell>
        <mxCell id="NHXklJYjzgCfUYS_sEGv-202" style="edgeStyle=orthogonalEdgeStyle;rounded=0;orthogonalLoop=1;jettySize=auto;html=1;exitX=0.5;exitY=0;exitDx=0;exitDy=0;" edge="1" parent="WIyWlLk6GJQsqaUBKTNV-1" source="NHXklJYjzgCfUYS_sEGv-172" target="NHXklJYjzgCfUYS_sEGv-173">
          <mxGeometry relative="1" as="geometry" />
        </mxCell>
        <mxCell id="NHXklJYjzgCfUYS_sEGv-172" value="Daftar&lt;br&gt;Harian" style="rounded=1;whiteSpace=wrap;html=1;fontSize=12;glass=0;strokeWidth=1;shadow=0;fillColor=#f5f5f5;strokeColor=#666666;fontColor=#333333;" vertex="1" parent="WIyWlLk6GJQsqaUBKTNV-1">
          <mxGeometry x="244" y="375" width="70" height="30" as="geometry" />
        </mxCell>
        <mxCell id="NHXklJYjzgCfUYS_sEGv-201" style="edgeStyle=orthogonalEdgeStyle;rounded=0;orthogonalLoop=1;jettySize=auto;html=1;exitX=0.5;exitY=0;exitDx=0;exitDy=0;entryX=0.5;entryY=1;entryDx=0;entryDy=0;" edge="1" parent="WIyWlLk6GJQsqaUBKTNV-1" source="NHXklJYjzgCfUYS_sEGv-173" target="NHXklJYjzgCfUYS_sEGv-169">
          <mxGeometry relative="1" as="geometry" />
        </mxCell>
        <mxCell id="NHXklJYjzgCfUYS_sEGv-173" value="Daftar&lt;br&gt;Ekstrakuli" style="rounded=1;whiteSpace=wrap;html=1;fontSize=12;glass=0;strokeWidth=1;shadow=0;fillColor=#f5f5f5;strokeColor=#666666;fontColor=#333333;" vertex="1" parent="WIyWlLk6GJQsqaUBKTNV-1">
          <mxGeometry x="244" y="335" width="70" height="30" as="geometry" />
        </mxCell>
        <mxCell id="NHXklJYjzgCfUYS_sEGv-206" style="edgeStyle=orthogonalEdgeStyle;rounded=0;orthogonalLoop=1;jettySize=auto;html=1;exitX=0;exitY=0.5;exitDx=0;exitDy=0;entryX=0;entryY=0.5;entryDx=0;entryDy=0;" edge="1" parent="WIyWlLk6GJQsqaUBKTNV-1" source="NHXklJYjzgCfUYS_sEGv-174" target="NHXklJYjzgCfUYS_sEGv-176">
          <mxGeometry relative="1" as="geometry" />
        </mxCell>
        <mxCell id="NHXklJYjzgCfUYS_sEGv-174" value="Program&amp;nbsp;&lt;br&gt;Tahfidz" style="rounded=1;whiteSpace=wrap;html=1;fontSize=12;glass=0;strokeWidth=1;shadow=0;fillColor=#dae8fc;strokeColor=#6c8ebf;" vertex="1" parent="WIyWlLk6GJQsqaUBKTNV-1">
          <mxGeometry x="239" y="460" width="80" height="40" as="geometry" />
        </mxCell>
        <mxCell id="NHXklJYjzgCfUYS_sEGv-204" style="edgeStyle=orthogonalEdgeStyle;rounded=0;orthogonalLoop=1;jettySize=auto;html=1;exitX=0;exitY=0.5;exitDx=0;exitDy=0;entryX=0;entryY=0.5;entryDx=0;entryDy=0;" edge="1" parent="WIyWlLk6GJQsqaUBKTNV-1" source="NHXklJYjzgCfUYS_sEGv-175" target="NHXklJYjzgCfUYS_sEGv-174">
          <mxGeometry relative="1" as="geometry" />
        </mxCell>
        <mxCell id="NHXklJYjzgCfUYS_sEGv-175" value="Sumbangan&lt;br&gt;Ke Panti" style="rounded=1;whiteSpace=wrap;html=1;fontSize=12;glass=0;strokeWidth=1;shadow=0;fillColor=#dae8fc;strokeColor=#6c8ebf;" vertex="1" parent="WIyWlLk6GJQsqaUBKTNV-1">
          <mxGeometry x="239" y="415" width="80" height="40" as="geometry" />
        </mxCell>
        <mxCell id="NHXklJYjzgCfUYS_sEGv-176" value="Keuangan" style="rounded=1;whiteSpace=wrap;html=1;fontSize=12;glass=0;strokeWidth=1;shadow=0;fillColor=#dae8fc;strokeColor=#6c8ebf;" vertex="1" parent="WIyWlLk6GJQsqaUBKTNV-1">
          <mxGeometry x="239" y="510" width="80" height="40" as="geometry" />
        </mxCell>
        <mxCell id="NHXklJYjzgCfUYS_sEGv-211" style="edgeStyle=orthogonalEdgeStyle;rounded=0;orthogonalLoop=1;jettySize=auto;html=1;exitX=0.5;exitY=1;exitDx=0;exitDy=0;" edge="1" parent="WIyWlLk6GJQsqaUBKTNV-1" source="NHXklJYjzgCfUYS_sEGv-179" target="NHXklJYjzgCfUYS_sEGv-180">
          <mxGeometry relative="1" as="geometry" />
        </mxCell>
        <mxCell id="NHXklJYjzgCfUYS_sEGv-179" value="Daftar&lt;br&gt;Dewan Guru" style="rounded=1;whiteSpace=wrap;html=1;fontSize=12;glass=0;strokeWidth=1;shadow=0;fillColor=#dae8fc;strokeColor=#6c8ebf;" vertex="1" parent="WIyWlLk6GJQsqaUBKTNV-1">
          <mxGeometry x="360" y="430" width="80" height="40" as="geometry" />
        </mxCell>
        <mxCell id="NHXklJYjzgCfUYS_sEGv-180" value="Daftar&lt;br&gt;Alumni" style="rounded=1;whiteSpace=wrap;html=1;fontSize=12;glass=0;strokeWidth=1;shadow=0;fillColor=#dae8fc;strokeColor=#6c8ebf;" vertex="1" parent="WIyWlLk6GJQsqaUBKTNV-1">
          <mxGeometry x="360" y="485" width="80" height="40" as="geometry" />
        </mxCell>
        <mxCell id="NHXklJYjzgCfUYS_sEGv-208" style="edgeStyle=orthogonalEdgeStyle;rounded=0;orthogonalLoop=1;jettySize=auto;html=1;exitX=0.5;exitY=1;exitDx=0;exitDy=0;entryX=0.5;entryY=0;entryDx=0;entryDy=0;" edge="1" parent="WIyWlLk6GJQsqaUBKTNV-1" source="NHXklJYjzgCfUYS_sEGv-181" target="NHXklJYjzgCfUYS_sEGv-182">
          <mxGeometry relative="1" as="geometry" />
        </mxCell>
        <mxCell id="NHXklJYjzgCfUYS_sEGv-181" value="Profil&amp;nbsp;&lt;br&gt;Madrasah" style="rounded=1;whiteSpace=wrap;html=1;fontSize=12;glass=0;strokeWidth=1;shadow=0;fillColor=#dae8fc;strokeColor=#6c8ebf;" vertex="1" parent="WIyWlLk6GJQsqaUBKTNV-1">
          <mxGeometry x="360" y="280" width="80" height="40" as="geometry" />
        </mxCell>
        <mxCell id="NHXklJYjzgCfUYS_sEGv-209" style="edgeStyle=orthogonalEdgeStyle;rounded=0;orthogonalLoop=1;jettySize=auto;html=1;exitX=0.5;exitY=1;exitDx=0;exitDy=0;" edge="1" parent="WIyWlLk6GJQsqaUBKTNV-1" source="NHXklJYjzgCfUYS_sEGv-182" target="NHXklJYjzgCfUYS_sEGv-183">
          <mxGeometry relative="1" as="geometry" />
        </mxCell>
        <mxCell id="NHXklJYjzgCfUYS_sEGv-182" value="Kalender&lt;br&gt;Pendidikan" style="rounded=1;whiteSpace=wrap;html=1;fontSize=12;glass=0;strokeWidth=1;shadow=0;fillColor=#dae8fc;strokeColor=#6c8ebf;" vertex="1" parent="WIyWlLk6GJQsqaUBKTNV-1">
          <mxGeometry x="360" y="330" width="80" height="40" as="geometry" />
        </mxCell>
        <mxCell id="NHXklJYjzgCfUYS_sEGv-210" style="edgeStyle=orthogonalEdgeStyle;rounded=0;orthogonalLoop=1;jettySize=auto;html=1;exitX=0.5;exitY=1;exitDx=0;exitDy=0;" edge="1" parent="WIyWlLk6GJQsqaUBKTNV-1" source="NHXklJYjzgCfUYS_sEGv-183" target="NHXklJYjzgCfUYS_sEGv-179">
          <mxGeometry relative="1" as="geometry" />
        </mxCell>
        <mxCell id="NHXklJYjzgCfUYS_sEGv-183" value="Prestasi" style="rounded=1;whiteSpace=wrap;html=1;fontSize=12;glass=0;strokeWidth=1;shadow=0;fillColor=#dae8fc;strokeColor=#6c8ebf;" vertex="1" parent="WIyWlLk6GJQsqaUBKTNV-1">
          <mxGeometry x="360" y="380" width="80" height="40" as="geometry" />
        </mxCell>
        <mxCell id="NHXklJYjzgCfUYS_sEGv-212" value="End" style="rounded=1;whiteSpace=wrap;html=1;fontSize=12;glass=0;strokeWidth=1;shadow=0;fillColor=#cdeb8b;strokeColor=#36393d;" vertex="1" parent="WIyWlLk6GJQsqaUBKTNV-1">
          <mxGeometry x="626.5" y="1040" width="105" height="60" as="geometry" />
        </mxCell>
      </root>
    </mxGraphModel>
  </diagram>
</mxfile>
